<svg xmlns="http://www.w3.org/2000/svg" fill="none" viewBox="0 0 24 24">
  <defs>
    <style type="text/css" id="current-color-scheme">
      .ColorScheme-Text { color: #232629; }
    </style>
  </defs>
  <path d="M12 2a1.998 1.998 0 0 1 .5 3.934V6.5H16a2 2 0 0 1 2 2V9h1v3h-1v.5a2 2 0 0 1-2 2h-2V16H6.182C5.529 16 5 16.53 5 17.182V21h9v1H4v-4.818C4 15.977 4.977 15 6.182 15H10v-.5H8a2 2 0 0 1-2-2V12H5V9h1v-.5a2 2 0 0 1 2-2h3.5v-.566A1.998 1.998 0 0 1 12 2m5.45 15.882h1.452l-1.175.854.449 1.382L17 19.264l-1.176.854.45-1.382-1.176-.854h1.453L17 16.5zM6.5 17a.5.5 0 1 1-.001 1.001A.5.5 0 0 1 6.5 17m2 0a.5.5 0 1 1-.001 1.001A.5.5 0 0 1 8.5 17m2 0a.5.5 0 1 1-.001 1.001A.5.5 0 0 1 10.5 17m.5-2h2v-.5h-2zM8 7.5a1 1 0 0 0-1 1v4a1 1 0 0 0 1 1h8a1 1 0 0 0 1-1v-4a1 1 0 0 0-1-1zm6.224 4.447-.018.01-.039.018a6.455 6.455 0 0 1-.634.25c-.4.133-.958.275-1.533.275s-1.133-.142-1.533-.275a6.427 6.427 0 0 1-.673-.269l-.016-.008h-.002l.448-.895.005.003.028.012a5.416 5.416 0 0 0 .526.207c.35.117.793.225 1.217.225.424 0 .867-.108 1.217-.225a5.443 5.443 0 0 0 .526-.207l.027-.012.006-.003zm-4.407-3.22a1.092 1.092 0 1 1 0 2.184 1.092 1.092 0 0 1 0-2.183m4.365 0a1.091 1.091 0 1 1 0 2.183 1.091 1.091 0 0 1 0-2.182M12 3a1 1 0 1 0 0 2 1 1 0 0 0 0-2" style="fill:currentColor" class="ColorScheme-Text"/>
</svg>
