<svg xmlns="http://www.w3.org/2000/svg" fill="none" viewBox="0 0 16 16">
  <defs>
    <style type="text/css" id="current-color-scheme">
      .ColorScheme-Text { color: #232629; }
    </style>
  </defs>
  <path d="M8 0a1.5 1.5 0 0 1 .5 2.912V3.5h2.75c.966 0 1.75.784 1.75 1.75V6h1v2h-1v.75a1.75 1.75 0 0 1-1.75 1.75H10V12H2.454a.455.455 0 0 0-.454.454V15h8v1H1v-3.546C1 11.651 1.651 11 2.454 11H6v-.5H4.75A1.75 1.75 0 0 1 3 8.75V8H2V6h1v-.75c0-.966.784-1.75 1.75-1.75H7.5v-.588A1.498 1.498 0 0 1 8 0m5 13.793.646-.646.707.707-1.853 1.853-1.854-1.854.707-.707.647.647V12h1zM3.5 12.5a.5.5 0 1 1 0 1 .5.5 0 0 1 0-1m2 0a.5.5 0 1 1 0 1 .5.5 0 0 1 0-1m2 0a.5.5 0 1 1 0 1 .5.5 0 0 1 0-1M7 11h2v-.5H7zM4.75 4.5a.75.75 0 0 0-.75.75v3.5c0 .414.336.75.75.75h6.5a.75.75 0 0 0 .75-.75v-3.5a.75.75 0 0 0-.75-.75zm5.474 3.947-.018.01a2.917 2.917 0 0 1-.18.081 6.75 6.75 0 0 1-.493.187C9.133 8.858 8.576 9 8 9s-1.133-.142-1.533-.275a6.41 6.41 0 0 1-.673-.269l-.016-.008h-.002l.448-.895.005.003.028.012a5.377 5.377 0 0 0 .526.207C7.133 7.892 7.576 8 8 8c.424 0 .867-.108 1.217-.225a5.378 5.378 0 0 0 .526-.207l.028-.012.005-.003zM6 5.5a1 1 0 1 1 0 2 1 1 0 0 1 0-2m4 0a1 1 0 1 1 0 2 1 1 0 0 1 0-2M8 1a.5.5 0 1 0 0 1 .5.5 0 0 0 0-1" style="fill:currentColor" class="ColorScheme-Text"/>
</svg>
