<svg xmlns="http://www.w3.org/2000/svg" fill="none" viewBox="0 0 22 22">
  <defs>
    <style type="text/css" id="current-color-scheme">
      .ColorScheme-Text { color: #232629; }
    </style>
  </defs>
  <path d="M11 2a1.5 1.5 0 0 1 .5 2.912V6H14a2 2 0 0 1 2 2h1v3h-1a2 2 0 0 1-2 2h-1v1h3a2 2 0 0 1 2 2v4H4v-4a2 2 0 0 1 2-2h3v-1H8l-.204-.01A2 2 0 0 1 6 11H5V8h1a2 2 0 0 1 2-2h2.5V4.912A1.498 1.498 0 0 1 11 2M6 15a1 1 0 0 0-1 1v3h12v-3a1 1 0 0 0-1-1zm9.707 2-1.354 1.354-.707-.707.647-.647-.646-.646.707-.707zM6.5 16a.5.5 0 1 1 0 1 .5.5 0 0 1 0-1m2 0a.5.5 0 1 1 0 1 .5.5 0 0 1 0-1m2 0a.5.5 0 1 1 0 1 .5.5 0 0 1 0-1m-.5-2h2v-1h-2zM8 7a1 1 0 0 0-1 1v3a1 1 0 0 0 1 1h6a1 1 0 0 0 1-1V8a1 1 0 0 0-1-1zm5.224 3.947-.018.01-.039.018a6.38 6.38 0 0 1-.634.25c-.4.133-.957.275-1.533.275s-1.133-.142-1.533-.275a6.374 6.374 0 0 1-.634-.25l-.039-.019-.016-.008h-.002l.448-.895.005.003.028.012a5.4 5.4 0 0 0 .526.207c.35.117.793.225 1.217.225.424 0 .867-.108 1.217-.225a5.394 5.394 0 0 0 .526-.207l.027-.012.006-.003zM9 8a1 1 0 1 1 0 2 1 1 0 0 1 0-2m4 0a1 1 0 1 1 0 2 1 1 0 0 1 0-2m-2-5a.5.5 0 1 0 0 1 .5.5 0 0 0 0-1" style="fill:currentColor" class="ColorScheme-Text"/>
</svg>
